<?xml version="1.0" encoding="iso-8859-1"?>
<!-- Generator: Adobe Illustrator 19.0.0, SVG Export Plug-In . SVG Version: 6.00 Build 0)  -->
<svg version="1.1" id="Layer_1" xmlns="http://www.w3.org/2000/svg" xmlns:xlink="http://www.w3.org/1999/xlink" x="0px" y="0px"
	 viewBox="0 0 392.53 392.53" style="enable-background:new 0 0 392.53 392.53;" xml:space="preserve">
<path style="fill:#FFFFFF;" d="M277.27,63.772c-33.681,0-53.851,32.194-64.84,59.345c-5.107,12.606-4.719,26.958,1.099,39.434
	c16.614,31.547,4.655,98.974-61.996,101.818l0,0c-15.321-0.646-29.543-4.784-42.861-12.154c-13.446-7.046-29.026-8.663-41.956-4.073
	c-42.02,14.869-45.188,75.96-44.671,101.042h28.509c0.323-13.123,2.327-23.855,3.943-28.638
	c3.943-11.636,14.998-19.523,27.539-19.523c9.762,0,18.683,4.848,23.855,12.994c31.095,37.495,67.297,58.182,110.416,56.889
	c78.093,1.745,153.018-77.705,154.311-159.03C377.084,153.178,333.383,63.19,277.27,63.772z"/>
<path style="fill:#194F82;" d="M277.27,41.986c-33.616,0-61.349,21.721-80.679,62.966c-3.232-1.745-5.495-5.172-5.495-9.115V10.956
	c0-6.012-4.848-10.925-10.925-10.925h-54.562c-6.012,0-10.925,4.848-10.925,10.925v84.816c0,46.416,36.719,84.299,82.618,86.497
	c6.012,30.384-16.291,60.444-45.899,60.186l0,0c-10.279-0.711-21.01-3.168-32.776-9.568c-18.747-9.891-40.792-11.895-59.345-5.301
	C-4.977,250.277-0.839,342.722,0.648,361.017c0.453,5.624,5.172,10.02,10.925,10.02h49.972h0.065
	c6.012,0,10.925-4.848,10.925-10.925c0-0.711,1.422-29.22,2.521-32.711c1.164-3.426,4.396-4.655,6.788-4.655
	c1.616,0,3.943,0.517,5.495,2.844c28.574,40.857,70.723,64.259,128.84,66.909l0,0c85.786-1.875,166.659-73.18,176.097-179.588
	C396.995,121.889,335.193,36.815,277.27,41.986z M370.619,211.813c-1.293,81.196-76.283,160.776-154.311,159.03
	c-43.119,1.422-79.386-19.394-110.416-56.889c-5.172-8.145-14.093-12.994-23.855-12.994c-12.541,0-23.596,7.887-27.539,19.523
	c-1.616,4.784-3.62,15.515-3.943,28.638H22.046c-0.517-25.212,2.651-86.238,44.671-101.042c12.8-4.59,28.444-3.038,41.956,4.073
	c13.382,7.24,27.669,11.507,42.861,12.154l0,0c66.586-2.844,78.61-70.335,61.996-101.818c-5.818-12.412-6.206-26.828-1.099-39.434
	c10.99-27.022,31.224-59.345,64.84-59.345C333.383,63.19,377.084,153.178,370.619,211.813z M136.664,21.881h32.711v73.956
	c0,13.317,8.145,24.76,19.653,29.608c-2.521,11.119-2.457,22.82,0.453,33.939c-29.996-5.689-52.752-32-52.752-63.612V21.881H136.664
	z"/>
<path style="fill:#FFC10D;" d="M189.415,159.449c-2.844-11.119-3.038-22.82-0.453-33.939c-11.507-4.848-19.653-16.291-19.653-29.608
	v-74.02h-32.711v73.956C136.664,127.514,159.484,153.76,189.415,159.449z"/>
<path style="fill:#56ACE0;" d="M277.27,85.558c-22.626-1.164-37.689,28.638-44.671,45.77c-2.844,6.982-2.651,14.998,0.646,21.915
	c4.396,9.438,7.499,20.234,8.598,30.19h36.267c6.012,0,10.925,4.848,10.925,10.925c0,6.012-4.848,10.925-10.925,10.925H241.65
	c-0.905,7.434-2.844,14.739-5.624,21.786h16.162c6.012,0,10.925,4.848,10.925,10.925c0,6.012-4.848,10.925-10.925,10.925h-28.186
	c-17.261,23.402-43.895,37.172-72.469,37.172l0,0c-21.204,0.259-42.343-8.986-53.01-14.61c-5.172-2.715-28.121-13.446-43.83,15.58
	c7.952-5.042,17.39-8.016,27.345-7.887c31.289,0.517,44.347,26.117,45.576,27.733c20.945,26.376,54.109,42.02,88.63,42.02l0,0
	c76.865,0,130.715-76.8,132.525-138.473C350.256,161.841,321.747,87.885,277.27,85.558z"/>
<path style="fill:#194F82;" d="M298.345,103.659c-4.655,3.879-5.236,10.731-1.487,15.386c15.063,18.23,32.582,48.679,30.19,90.311
	c-0.646,4.59,2.844,11.119,10.925,11.507c5.689,0,10.537-4.461,10.925-10.279c2.78-48.743-17.519-84.299-35.168-105.568
	C309.852,100.362,302.934,99.78,298.345,103.659z"/>
<g>
</g>
<g>
</g>
<g>
</g>
<g>
</g>
<g>
</g>
<g>
</g>
<g>
</g>
<g>
</g>
<g>
</g>
<g>
</g>
<g>
</g>
<g>
</g>
<g>
</g>
<g>
</g>
<g>
</g>
</svg>
